<svg xmlns="http://www.w3.org/2000/svg" viewBox="0 0 333332 255950" shape-rendering="geometricPrecision"
     text-rendering="geometricPrecision" image-rendering="optimizeQuality" fill-rule="evenodd" clip-rule="evenodd">
  <path
    d="M245136 71820h69132c5250 0 10057 2155 13484 5581 3481 3481 5581 8234 5581 13484v145999c0 5250-2155 10057-5581 13484-3481 3481-8234 5581-13484 5581h-69132c-5250 0-10057-2156-13483-5581-3481-3481-5581-8234-5581-13484V90885c0-5250 2155-10057 5581-13483 3481-3481 8234-5581 13483-5581zM8269 1h287859c4549 0 8268 3723 8268 8268v50016h-17566V22901c0-4024-3293-7314-7319-7314H24887v-3c-4024 0-7315 3289-7315 7315v142495c0 4024 3291 7317 7315 7317h183174v34530H8270c-4544 0-8269-3720-8269-8271V8269C1 3725 3725 0 8270 0v1zm106405 218670h75055c201 12994 5539 24612 20037 33774H94634c11588-8419 20082-18634 20037-33774h2zm37525-39306c5864 0 10626 4759 10626 10629 0 5864-4763 10622-10626 10622-5867 0-10630-4759-10630-10622 0-5871 4764-10629 10630-10629zm127475 53154c4311 0 7847 3481 7847 7847 0 4310-3481 7847-7847 7847-4310 0-7847-3481-7847-7847 0-4310 3481-7847 7847-7847zm-45583-5968h91165V101385h-91165v125166z"/>
</svg>
